<svg width="100" height="100" viewBox="0 0 100 100" fill="none" xmlns="http://www.w3.org/2000/svg">
<circle cx="50" cy="50" r="50" fill="#99CE80"/>
<path d="M50 0C22.404 0 0 22.404 0 50C0 77.596 22.404 100 50 100C77.546 100 99.911 77.676 99.992 50.148C99.9971 50.0988 99.9998 50.0494 100 50C100 49.9556 99.998 49.9112 99.994 49.867C99.922 22.332 77.552 0 50 0ZM49.68 3.008C50.612 3.094 51.542 3.208 52.463 3.387C52.53 5.591 53.022 9.709 48.715 9.562C45.171 9.762 41.808 17.812 39.815 12.002C40.047 9.022 45.176 3.016 38.98 5.199C37.661 7.103 38.004 10.642 35.56 10.225C34.692 13.361 32.247 11.492 31.762 10.133C30.587 10.821 32.633 12.585 31.318 13.525C35.12 10.969 31.631 16.723 33.805 18.203C31.729 20.197 35.442 25.296 31.063 24.006C27.028 23.363 34.2 18.911 29.258 21.036C26.152 21.733 26.318 23.506 28.643 23.973C26.557 25.931 23.897 26.038 22.66 25.156C19.492 27.177 16.468 29.676 13.861 32.611C10.031 32.791 10.894 40.556 9.051 39.766C8.849 37.386 9.661 33.546 7.217 34.102C6.601 33.898 6.04 34.169 5.553 34.709C11.86 16.349 29.2 3.145 49.68 3.008ZM56.455 3.451C57.1 3.54 57.74 3.643 58.377 3.758C59.225 4.084 59.777 4.523 58.494 4.682L57.471 4.334C56.608 3.839 56.363 3.57 56.455 3.451V3.451ZM67.415 6.341C84.753 13.258 97 30.182 97 50C97 63.086 91.66 74.91 83.043 83.428C84.027 80.745 84.543 77.758 86.381 75.51C87.553 71.465 83.411 68.575 85.787 64.834C83.726 65.082 80.075 62.624 77.795 65.977C75.189 66.011 72.665 68.999 70.242 67.439C67.024 65.529 63.332 63.295 62.42 59.393C62.812 56.35 61.877 52.45 62.166 49.629C63.606 44.748 67.483 41.815 68.286 36.99C68.616 36.699 71.428 34.505 71.545 34.414C74.967 33.529 79.621 28.036 81.665 33.543C82.362 34.048 87.021 36.396 86.602 34.543C86.715 31.648 94.436 33.218 90.471 29.432C90.06 29.189 88.497 28.734 87.461 29.023C87.035 29.125 85.201 31.153 83.637 28.428C81.229 26.185 83.507 34.439 80.275 30.172C83.599 29.067 76.054 25.205 77.832 27.452C80.44 31.882 75.578 28.973 76.459 25.918C72.252 25.402 74.293 33.301 70.346 34.516C70.372 34.52 70.401 34.514 70.428 34.518L69.74 34.608L68.678 34.705C67.704 33.713 64.866 33.588 65.707 30.717C63.917 27.617 65.692 26.435 68.859 26.727C72.054 24.681 62.214 22.232 68.535 21.164C65.768 21.342 64.611 21.447 64.252 18.034C64.694 22.268 59.223 19.624 62.156 17.105C63.274 16.355 59.586 14.822 62.686 14.299C64.759 14.189 68.845 22.589 69.594 17.551C71.002 17.099 68.278 14.403 68.93 14.26C65.26 15.429 64.19 8.987 64.16 6.576C65.376 6.624 66.606 6.524 67.414 6.342L67.415 6.341ZM33.378 7.968C33.114 8 32.622 8.234 31.845 8.79C30.873 9.208 28.93 11.777 31.21 9.876C32.92 9.592 34.17 7.871 33.378 7.968ZM68.348 9.226C67.873 9.263 69.422 10.51 68.688 9.294C68.525 9.239 68.417 9.22 68.348 9.226ZM28.095 9.798C27.69 9.768 27.093 9.949 26.259 10.438C23.532 10.67 23.389 16.666 23.468 16.306C24.275 15.768 24.988 14.121 26.032 14.218C27.98 14.016 29.848 9.925 28.095 9.798V9.798ZM53.333 9.908C55.3 9.825 58.386 11.393 54.116 11.923C53.423 11.919 52.662 11.797 52.14 11.294C51.775 10.322 52.439 9.944 53.333 9.907V9.908ZM68.458 10.688C67.638 10.614 71.579 13.389 69.915 11.29C69.091 10.874 68.647 10.706 68.458 10.689V10.688ZM60.235 12.23C60.471 12.126 60.903 13.454 60.12 12.575C60.136 12.355 60.181 12.253 60.235 12.23ZM63.259 12.956C63.449 13.008 64.159 14.474 63.317 13.516C63.189 13.078 63.195 12.939 63.259 12.956ZM71.819 12.966C71.407 12.968 71.439 13.4 72.683 14.501C73.046 16.165 72.185 16.968 74.043 15.466C74.433 14.16 72.507 12.963 71.819 12.966ZM17.62 19.04C17.032 18.971 17.552 21.658 18.216 19.62C17.95 19.219 17.756 19.056 17.62 19.04ZM26.905 20.222C26.535 20.217 26.879 21.092 27.528 20.602C27.231 20.322 27.028 20.223 26.905 20.222ZM83.795 20.582C83.032 20.67 85.483 25.802 86.069 23.464C89.177 22.986 85.595 20.339 84.901 21.48C84.321 20.81 83.972 20.56 83.796 20.581L83.795 20.582ZM17.692 21.521C17.237 21.622 16.962 24.411 17.895 21.665C17.825 21.545 17.757 21.506 17.692 21.521ZM78.177 24.343C78.021 24.39 78.381 24.791 79.687 25.765C80.154 25.625 82.46 27.773 81.921 26.567C81.041 25.693 78.835 24.437 78.274 24.345C78.2422 24.3376 78.2091 24.3369 78.177 24.343V24.343ZM16.542 24.366C16.048 24.266 15.083 25.949 16.77 24.776C16.745 24.506 16.656 24.389 16.542 24.366ZM84.92 26.6C84.66 26.71 85.857 28.406 85.766 27.184C85.254 26.702 85.006 26.563 84.92 26.6ZM74.646 28.914C75.268 28.817 74.897 31.678 73.687 30.266C74.121 29.308 74.439 28.946 74.647 28.914H74.646ZM87.383 29.922C88.06 29.834 88.643 31.756 86.762 30.859C86.92 30.205 87.157 29.951 87.382 29.922H87.383ZM50.843 32.702C51.575 32.766 51.44 33.949 49.846 33.125C50.26 32.782 50.6 32.68 50.844 32.701L50.843 32.702ZM53.049 33.453C53.347 33.565 52.761 34.636 52.414 33.768C52.751 33.485 52.95 33.416 53.049 33.453ZM60.989 38.531C61.404 38.431 61.219 39.921 60.604 38.904C60.766 38.662 60.892 38.554 60.988 38.531H60.989ZM10.822 38.959C11.096 38.956 11.706 40.999 10.73 39.838C10.676 39.188 10.73 38.96 10.822 38.959ZM10.279 40.609C10.554 40.656 10.419 43.273 9.869 41.672C10.051 40.865 10.188 40.594 10.279 40.609ZM5.453 41.414C6.018 41.727 4.433 45.865 5.033 46.875C6.966 49.816 3.765 55.069 8.34 56.082C9.96 52.942 11.466 55.792 11.826 55.412C13.316 55.149 14.377 58.829 17.051 58.332C20.149 58.006 18.616 64.096 22.841 64.77C28.001 66.265 27.468 73.18 33.151 74.04C36.511 76.007 45.923 76.867 42.975 82.271C38.573 84.085 41.395 92.104 34.915 90.537C33.487 90.949 32.868 92.387 31.807 93.352C25.9426 90.8844 20.6399 87.2525 16.22 82.676C13.683 78.781 10.06 75.647 8.41 71.174C4.939 66.738 7.759 61.972 7.065 57.346C6.861 54.896 6.258 58.809 5.44 55.701C4.204 53.166 3.775 49.816 3.108 46.931C3.222 45.167 3.437 43.431 3.739 41.725C3.793 42.092 3.881 42.405 4.011 42.635C4.837 41.631 5.264 41.31 5.452 41.415L5.453 41.414ZM7.486 41.454C7.764 41.482 8.153 41.584 8.682 41.777C9.671 44.551 12.363 45.453 11.602 46.676C13.543 47.451 16.372 51.132 11.795 49.484C8.755 48.259 12.853 47.161 9.258 46.191C9.117 44.681 5.545 41.252 7.486 41.453V41.454ZM64.189 42.219C64.644 42.219 65.002 44.055 63.66 43.732C63.756 42.598 63.983 42.219 64.19 42.219H64.189ZM11.264 43.035C11.463 43.086 11.781 43.635 11.594 44.299L11.367 44.149C11.077 43.438 11.083 43.112 11.187 43.045C11.1984 43.0379 11.2111 43.0333 11.2244 43.0316C11.2377 43.0299 11.2512 43.031 11.264 43.035ZM60.77 43.119C62.062 43.045 64.362 44.099 61.395 44.197H60.396L60.221 44.115C59.803 43.42 60.182 43.153 60.77 43.119ZM8.48 46.764C9.06 46.885 10.734 48.744 8.81 48.076C8.18 47.013 8.217 46.708 8.48 46.764ZM15.076 49.582C15.797 49.492 16.768 51.43 14.564 50.529C14.622 49.868 14.836 49.612 15.076 49.582ZM18.586 53.227C18.878 53.341 19.142 57.75 18.361 55.666L18.322 54.941C18.388 53.626 18.489 53.188 18.586 53.227V53.227ZM53.662 56.162C54.21 56.222 55.949 57.352 54.102 56.986C53.41 56.329 53.413 56.136 53.662 56.162ZM56.348 56.777C56.845 56.769 56.661 58.282 55.895 57.078C56.083 56.862 56.233 56.779 56.348 56.778V56.777ZM55.902 58.094C56.665 57.97 56.064 59.484 55.145 58.492C55.479 58.239 55.726 58.122 55.902 58.094ZM54.612 58.287C54.892 58.317 54.732 59.678 54.182 58.832C54.376 58.415 54.518 58.277 54.612 58.287ZM83.832 67.6C84.113 67.63 83.952 68.99 83.402 68.145C83.596 67.727 83.738 67.59 83.832 67.6Z" fill="#428EFF"/>
</svg>
