<?xml version="1.0" encoding="UTF-8" standalone="no"?>
<!-- Created with Inkscape (http://www.inkscape.org/) -->

<svg
   width="7.0590611mm"
   height="7.3024759mm"
   viewBox="0 0 7.0590611 7.3024759"
   version="1.1"
   id="svg1470"
   xmlns="http://www.w3.org/2000/svg"
   xmlns:svg="http://www.w3.org/2000/svg">
  <defs
     id="defs1467" />
  <g
     id="layer1"
     transform="translate(-54.285116,-32.622592)">
    <g
       aria-label="@"
       id="text6967"
       style="font-size:10.5833px;line-height:1.25;stroke-width:0.264583;fill:#0066ff">
      <path
         d="m 58.857105,34.993255 0.07408,-0.402166 0.941913,0.01058 -0.391582,2.000243 q -0.0635,0.328083 -0.0635,0.465666 0,0.328082 0.232833,0.328082 0.243416,0 0.476248,-0.338666 0.391582,-0.560915 0.391582,-1.322912 0,-0.99483 -0.687914,-1.629828 -0.687914,-0.634998 -1.777994,-0.634998 -1.206496,0 -2.031994,0.83608 -0.814914,0.825498 -0.814914,2.042577 0,0.878414 0.465665,1.598078 0.465665,0.719665 1.206496,0.963081 0.507999,0.169332 1.18533,0.169332 0.910164,0 1.904994,-0.317499 l 0.211666,0.846664 q -0.984247,0.317499 -2.14841,0.317499 -1.619245,0 -2.624658,-0.941913 -1.12183,-1.05833 -1.12183,-2.645825 0,-1.566329 1.079497,-2.635242 1.079496,-1.079496 2.645824,-1.079496 1.439329,0 2.381243,0.888997 0.952497,0.878414 0.952497,2.222493 0,0.96308 -0.529165,1.703911 -0.518582,0.730248 -1.206496,0.730248 -0.296333,0 -0.529165,-0.15875 -0.22225,-0.158749 -0.296333,-0.412749 -0.465665,0.666748 -1.312329,0.666748 -0.634998,0 -1.068913,-0.476248 -0.423332,-0.476249 -0.423332,-1.18533 0,-0.846664 0.550332,-1.481662 0.560914,-0.634998 1.301745,-0.634998 0.698498,0 1.02658,0.507999 z m -0.232832,1.206496 -0.01058,-0.05292 Q 58.592523,35.839916 58.41261,35.66 q -0.179916,-0.1905 -0.455082,-0.1905 -0.359832,0 -0.634998,0.328083 -0.264582,0.328082 -0.264582,0.761997 0,0.328082 0.179916,0.539748 0.190499,0.201083 0.486831,0.201083 0.359833,0 0.624415,-0.328082 0.275166,-0.328082 0.275166,-0.772581 z"
         style="font-weight:bold;font-family:'American Typewriter';-inkscape-font-specification:'American Typewriter Bold';fill:#0066ff"
         id="path11705" />
    </g>
  </g>
</svg>
