<?xml version="1.0" encoding="UTF-8" standalone="no"?>
<!-- Created with Inkscape (http://www.inkscape.org/) -->

<svg
   width="74.640144mm"
   height="74.631577mm"
   viewBox="0 0 74.640144 74.631577"
   version="1.1"
   id="svg1023"
   xmlns="http://www.w3.org/2000/svg"
   xmlns:svg="http://www.w3.org/2000/svg">
  <defs
     id="defs1020" />
  <g
     id="layer2"
     transform="translate(-70.07513,-47.745003)">
    <ellipse
       style="fill:#241f1c;stroke:none;stroke-width:5.25295;stroke-linejoin:round;paint-order:stroke markers fill;stop-color:#000000"
       id="path1119"
       cx="107.3952"
       cy="85.060791"
       rx="37.320072"
       ry="37.315788" />
  </g>
  <g
     id="layer1"
     transform="translate(-70.07513,-47.745003)">
    <path
       id="path26658-8"
       style="color:#000000;display:inline;fill:#ffcc00;stroke-width:1.47541;stroke-linejoin:round;-inkscape-stroke:none;paint-order:stroke markers fill"
       d="m 107.16448,47.7455 c -0.73271,0.004 -1.46539,0.0291 -2.19675,0.076 -0.16352,0.006 -0.3269,0.0127 -0.49043,0.0191 -3.59506,0.32953 -7.16071,1.08257 -10.52285,2.41277 -3.24393,1.23788 -6.30831,2.95269 -9.07595,5.04775 -3.11859,2.35384 -5.86545,5.20312 -8.09305,8.41241 -2.09235,2.97147 -3.69753,6.26494 -4.86326,9.70329 -1.13733,3.56383 -1.78929,7.28515 -1.84176,11.02878 -0.067,3.94055 0.50162,7.88986 1.66399,11.65614 1.16113,3.73153 2.90648,7.27874 5.15782,10.47429 2.2538,3.19173 5.0139,6.02208 8.14112,8.36537 3.13264,2.33492 6.62855,4.18201 10.32804,5.44256 3.70019,1.25532 7.59594,1.92736 11.50368,1.98438 10.72703,0.23383 21.41786,-4.52044 28.47941,-12.59095 6.55949,-7.35925 9.99077,-17.40456 9.26507,-27.23969 -0.27186,-3.86496 -1.13395,-7.68726 -2.56678,-11.28871 -1.46092,-3.66016 -3.50779,-7.08225 -6.02599,-10.11411 -2.48999,-2.96789 -5.43287,-5.55339 -8.70902,-7.62383 -3.30592,-2.08385 -6.93785,-3.64578 -10.72441,-4.61522 -3.07769,-0.77973 -6.25385,-1.16676 -9.42888,-1.15032 z m -0.54623,0.78548 1.002,0.0517 -0.20772,3.99976 c -0.0297,0.57055 0.0418,0.99261 0.21444,1.26607 0.25829,0.39578 0.63953,0.60681 1.14414,0.63304 0.50745,0.0264 0.91027,-0.1442 1.2082,-0.51108 0.19962,-0.24548 0.31453,-0.6575 0.34467,-1.23662 l 0.20772,-3.99976 1.00203,0.0522 -0.22222,4.27467 c -0.0364,0.69956 -0.28432,1.26465 -0.74361,1.69499 -0.51652,0.47911 -1.13149,0.70013 -1.84537,0.66301 -0.71389,-0.0371 -1.30156,-0.32067 -1.7627,-0.8506 -0.41225,-0.47565 -0.60016,-1.06312 -0.56378,-1.76268 z m 8.14888,0.29043 3.23905,6.22546 1.2909,-4.43694 0.96325,0.2806 -1.97044,6.77272 -3.24268,-6.21306 -1.30018,4.47001 -0.96325,-0.2806 z m -11.98997,0.0661 0.68678,5.66426 1.94096,-0.23513 0.11369,0.93637 -2.9373,0.35606 -0.79994,-6.60063 z m -7.75819,2.06499 c 0.20582,9.6e-4 0.39166,0.0304 0.55758,0.0884 0.53356,0.18923 0.90792,0.56556 1.12345,1.12861 0.16833,0.43971 0.18727,0.86614 0.0563,1.27899 -0.13081,0.41265 -0.38558,0.74208 -0.7643,0.98858 l 2.9347,1.91047 -1.14617,0.43874 -2.74661,-1.86242 -0.16897,0.0646 0.97306,2.54145 -0.93689,0.35915 -2.37712,-6.20996 1.09813,-0.42013 c 0.5384,-0.20611 1.00385,-0.30826 1.39681,-0.30644 z m -0.10647,0.95137 c -0.22352,-5.3e-4 -0.48352,0.0559 -0.78031,0.1695 l -0.33382,0.12815 0.75395,1.97043 0.29766,-0.11369 c 0.88747,-0.33973 1.20174,-0.84923 0.94208,-1.52756 -0.15965,-0.41701 -0.45289,-0.62581 -0.87956,-0.62683 z m 28.22879,0.26303 1.21386,0.68781 c 0.58203,0.32973 1.00896,0.64748 1.28106,0.95343 0.29853,0.31759 0.51903,0.69496 0.66095,1.13172 0.28851,0.88277 0.18146,1.76735 -0.32091,2.6541 -0.50379,0.88926 -1.22264,1.4327 -2.15593,1.62987 -0.46794,0.0979 -0.90331,0.10359 -1.30638,0.0171 -0.3806,-0.0737 -0.86408,-0.27671 -1.45108,-0.60927 l -1.19941,-0.67954 z m 0.40773,1.31516 -2.34768,4.14446 0.39378,0.22272 c 0.39217,0.22217 0.74152,0.36572 1.04799,0.43047 0.30932,0.0598 0.62262,0.0539 0.94001,-0.0171 0.6518,-0.14878 1.15594,-0.53791 1.51257,-1.16737 0.35944,-0.63447 0.43876,-1.26903 0.2377,-1.90428 -0.18264,-0.56873 -0.64621,-1.06399 -1.39059,-1.48569 z m -35.93269,0.39171 6.46316,4.27054 -0.92758,0.58756 -1.45367,-0.99063 -2.40451,1.52342 0.23876,1.76061 -0.91313,0.57878 z m 1.18856,1.9079 0.33692,2.46289 1.70635,-1.08107 z m 18.91149,0.31212 c 0.65698,0.006 1.31376,0.0327 1.96887,0.0806 0.0759,0.003 0.15152,0.007 0.22738,0.01 3.21239,0.32335 6.38077,1.10917 9.32709,2.44016 3.84424,1.72559 7.29991,4.301 10.05933,7.48636 2.68475,3.11469 4.71395,6.79962 5.86425,10.75077 1.03328,3.47945 1.39385,7.15888 1.09088,10.77608 -0.0804,0.91586 -0.21633,1.85098 -0.39429,2.78846 -0.0763,0.0357 -0.15242,0.0799 -0.22738,0.14315 -1.25137,1.04238 -1.39607,2.74561 -1.63814,4.24005 -0.90368,3.95623 -4.16713,6.88256 -7.61968,8.72763 -3.17963,1.68415 -6.53751,3.08441 -10.08518,3.76463 -11.09805,2.26586 -23.30688,-0.90063 -31.5867,-8.71626 -0.0458,-0.63813 0.2218,-1.04025 0.82061,-1.2299 1.64274,-0.8411 3.01654,-2.09658 4.1951,-3.50263 0.58177,-0.22521 1.00036,0.0989 1.42729,0.44958 3.26978,2.30599 7.14796,3.5418 11.0965,3.93413 8.64634,0.764 17.75936,-2.98414 22.85698,-10.11256 1.66449,-2.44347 3.22736,-5.26482 2.9745,-8.32456 -0.21167,-3.35104 -2.15863,-6.6403 -4.92683,-8.62273 -1.91381,-1.5161 -4.22606,-2.53954 -6.55154,-3.03289 -0.66357,-0.49897 -0.64206,-1.44856 -1.10225,-2.11253 -1.62835,-3.39779 -5.32665,-5.46689 -8.87286,-5.97535 -0.75001,-0.12055 -1.50942,-0.17292 -2.26909,-0.1788 -0.25323,-0.002 -0.50678,7.9e-4 -0.75964,0.009 -3.49787,0.13496 -7.10108,1.4073 -9.93738,3.58169 -4.78846,3.37743 -8.83288,8.28735 -9.99371,14.14591 -1.07966,4.9991 0.89159,10.2658 4.32789,13.92059 0.11856,0.54923 -0.0908,0.96187 -0.5488,1.26298 -1.44565,1.33211 -3.2063,2.52933 -5.19348,2.76262 -0.6855,-0.48699 -0.82907,-1.42106 -1.42626,-2.01125 -0.42468,-0.53563 -0.94911,-1.07992 -1.54098,-1.5105 0.0699,0.28225 0.14411,0.56376 0.22219,0.84388 0.0738,0.26488 0.15185,0.52846 0.23307,0.79116 -0.0816,-0.2626 -0.15898,-0.52636 -0.23307,-0.79116 -0.0784,-0.28016 -0.15227,-0.5615 -0.22219,-0.84388 -0.71729,-2.89575 -0.99299,-5.90112 -0.79119,-8.87904 0.23926,-3.77164 1.23764,-7.49656 2.90939,-10.88564 1.80636,-3.69754 4.4306,-6.98045 7.59901,-9.60148 3.02549,-2.46773 6.53656,-4.34133 10.29084,-5.42241 2.73172,-0.80547 5.58252,-1.18027 8.42947,-1.15549 z m 21.95732,0.1695 0.75655,0.65216 c 0.33692,0.29069 0.58298,0.54838 0.73792,0.77308 0.15716,0.22659 0.25199,0.46198 0.28424,0.7059 0.0307,0.25015 0.004,0.50639 -0.0781,0.76894 -0.0822,0.2666 -0.20815,0.49878 -0.37878,0.6966 -0.31131,0.36083 -0.71284,0.54734 -1.20457,0.55914 0.1886,0.32196 0.26117,0.66386 0.21858,1.02526 -0.0385,0.3611 -0.18714,0.6917 -0.44596,0.99167 -0.33946,0.39344 -0.76531,0.60551 -1.27796,0.63717 -0.31179,0.023 -0.6001,-0.0226 -0.86506,-0.13746 -0.28263,-0.13391 -0.59552,-0.34916 -0.93895,-0.64544 l -1.15136,-0.99322 z m 0.15814,1.35289 -1.26349,1.46399 0.23823,0.20567 c 0.28255,0.2438 0.54247,0.35967 0.77978,0.3483 0.24138,-0.0117 0.46694,-0.13894 0.67696,-0.3824 0.20445,-0.23695 0.29176,-0.47463 0.26202,-0.71262 -0.0279,-0.24018 -0.16984,-0.47065 -0.42635,-0.69195 z m -46.1419,5.2e-4 0.83613,0.84491 c -0.75348,0.0632 -1.35041,0.31256 -1.7911,0.74879 -0.48561,0.48071 -0.7218,1.06028 -0.709,1.73839 0.009,0.67809 0.26122,1.268 0.75809,1.76992 0.4908,0.4958 1.07217,0.7486 1.74408,0.75809 0.6719,0.01 1.25073,-0.22619 1.73632,-0.70693 0.25096,-0.24842 0.42363,-0.5002 0.51832,-0.75551 0.0575,-0.13776 0.10414,-0.29273 0.13952,-0.46509 0.0376,-0.17436 0.0661,-0.36827 0.0853,-0.58136 l 0.85111,0.8599 c -0.17981,0.63451 -0.49418,1.17417 -0.9431,1.6185 -0.67533,0.66853 -1.48482,1.00329 -2.42877,1.0046 -0.94602,-0.005 -1.75141,-0.34251 -2.41589,-1.0139 -0.59581,-0.60189 -0.92813,-1.33575 -0.99684,-2.2009 -0.0819,-1.06214 0.26596,-1.97759 1.04336,-2.74712 0.42436,-0.4201 0.94848,-0.71101 1.5725,-0.87229 z m 44.33011,2.09961 -1.3136,1.52239 0.46921,0.40514 c 0.34343,0.29631 0.65408,0.44661 0.9312,0.45062 0.29522,6.4e-4 0.53909,-0.11097 0.73226,-0.33486 0.18754,-0.21737 0.2639,-0.47067 0.22842,-0.75913 -0.0331,-0.28255 -0.2544,-0.59982 -0.66302,-0.9524 z m 6.30452,0.88263 2.32855,2.836 -0.72914,0.59842 -1.69138,-2.06034 -1.23454,1.01389 1.64226,2.0004 -0.72916,0.59841 -1.64227,-2.0004 -1.7172,1.41025 1.69135,2.05983 -0.72864,0.59893 -2.32851,-2.83601 z m -30.70767,1.43919 c 2.62167,-0.003 5.42139,0.45128 7.54888,2.08618 0.98374,0.76978 1.78265,1.76683 2.3518,2.87683 -0.22207,0.70693 -0.73867,0.8792 -1.42679,0.79426 -3.29113,0.15709 -6.70087,1.407 -9.25783,3.61012 -5.07833,3.90501 -7.78756,9.87808 -10.9094,15.31637 -0.70443,1.21065 -1.38904,2.43972 -2.24999,3.54863 -0.63564,0.20603 -1.08604,-0.0717 -1.41285,-0.61805 -2.10677,-2.34144 -3.40048,-5.40214 -3.46491,-8.56279 -0.17518,-5.44572 2.59131,-10.69991 6.69883,-14.17019 3.34873,-2.89353 7.66723,-4.78127 12.12226,-4.88136 z m -24.77678,1.41128 c 0.0768,-1e-4 0.1556,0.003 0.23614,0.009 l -0.0594,0.94413 c -0.30393,-0.023 -0.5283,1e-4 -0.67231,0.0687 -0.15674,0.0669 -0.29866,0.19392 -0.42632,0.38137 -0.15682,0.23014 -0.22185,0.46568 -0.19484,0.70642 0.0247,0.23914 0.13412,0.42506 0.32867,0.55759 0.26812,0.18264 0.61999,0.13052 1.05523,-0.15658 l 0.59791,-0.39533 c 0.48416,-0.32325 0.92697,-0.4995 1.3286,-0.52813 0.39923,-0.0303 0.78751,0.0831 1.16478,0.34003 0.50541,0.34426 0.80817,0.79749 0.90847,1.35909 0.10107,0.56556 -0.0196,1.09946 -0.36224,1.60248 -0.32488,0.47692 -0.73477,0.77499 -1.22888,0.89349 -0.49083,0.11374 -1.01809,0.0339 -1.58232,-0.23926 l 0.38706,-0.96583 c 0.34854,0.18185 0.61656,0.26715 0.8046,0.25631 0.35364,-0.009 0.64201,-0.17743 0.86506,-0.50488 0.17615,-0.25863 0.23622,-0.53231 0.1793,-0.82114 -0.0569,-0.28883 -0.21846,-0.52384 -0.48418,-0.70486 -0.10679,-0.0727 -0.21421,-0.12346 -0.32298,-0.15245 -0.10951,-0.0331 -0.22331,-0.0426 -0.34057,-0.0284 -0.11798,0.01 -0.24271,0.0427 -0.37465,0.0987 -0.13431,0.0544 -0.27792,0.13016 -0.43098,0.22738 l -0.58187,0.38034 c -0.83029,0.53558 -1.55152,0.59476 -2.16369,0.17776 -0.41285,-0.28122 -0.6505,-0.67406 -0.71313,-1.17874 -0.065,-0.50629 0.0624,-0.9947 0.3824,-1.4645 0.39108,-0.57413 0.95769,-0.86147 1.70016,-0.86249 z m 59.20052,2.02779 0.58084,1.02216 c 0.43387,0.76388 0.60325,1.39706 0.50901,1.89962 -0.10687,0.55594 -0.42196,0.98278 -0.9462,1.28055 -0.40939,0.23254 -0.82839,0.31487 -1.25625,0.24753 -0.42785,-0.0673 -0.79171,-0.26953 -1.09243,-0.6072 h -5.3e-4 l -1.44693,3.18947 -0.60619,-1.06764 1.42836,-2.99516 -0.0889,-0.15762 -2.3668,1.34462 -0.49557,-0.87281 z m -0.32453,1.3379 -1.83505,1.04232 0.15761,0.27698 c 0.46935,0.82629 1.02002,1.05997 1.65159,0.70125 0.59166,-0.33604 0.65913,-0.90564 0.20259,-1.70946 z m -61.25208,2.51251 c 0.44101,-0.008 0.88236,0.0763 1.32395,0.25166 0.8885,0.35291 1.5163,0.96966 1.88309,1.85054 0.36841,0.88462 0.37317,1.7781 0.015,2.67994 -0.31687,0.79778 -0.87754,1.40438 -1.68206,1.82004 -0.88866,0.45636 -1.82804,0.4877 -2.81792,0.0946 -0.86982,-0.34548 -1.49035,-0.96073 -1.8614,-1.8464 -0.37213,-0.88301 -0.38084,-1.77018 -0.0269,-2.66134 0.34972,-0.88049 0.96454,-1.51073 1.84433,-1.89032 0.44042,-0.19112 0.88087,-0.29083 1.32188,-0.29869 z m 36.83598,0.5426 c 0.51763,-0.0203 1.07585,0.14543 1.18237,0.70332 0.0599,2.47408 -0.79938,4.92498 -2.1146,6.99854 -1.00412,1.5871 -2.40104,2.89123 -3.91295,3.97391 -0.70834,1.0859 0.69678,2.95136 1.90841,2.21279 0.15386,-0.014 0.29573,0.008 0.41548,0.0398 -0.0689,-0.0395 -0.13949,-0.0795 -0.23511,-0.14004 1.43899,-1.00021 2.86001,-2.3519 3.83024,-3.90157 1.66166,-2.55207 2.53762,-5.62516 2.40554,-8.67182 0.42349,-0.48463 0.9226,-0.60241 1.47487,-0.2496 4.46309,1.72428 7.95834,6.31256 7.60005,11.20913 -0.36637,3.96413 -2.89979,7.41432 -5.95003,9.82369 -4.51819,3.538 -10.31812,5.41409 -16.05743,5.05344 -4.45127,-0.23877 -8.87619,-1.68618 -12.4659,-4.35839 -0.28279,-0.61806 0.0944,-1.08083 0.45577,-1.55494 2.86192,-4.40699 4.90445,-9.32293 8.16644,-13.47412 3.07732,-4.13015 7.76116,-7.53668 13.07878,-7.64449 0.0709,-0.01 0.14417,-0.0167 0.21807,-0.0196 z m -2.52129,13.92835 c 0.47765,0.27352 0.34996,0.0927 0,0 z M 76.43249,70.32087 c -0.31982,3.3e-4 -0.63492,0.0664 -0.94514,0.19792 -0.62206,0.25954 -1.0613,0.71184 -1.31776,1.35754 -0.2554,0.64302 -0.24699,1.27505 0.0253,1.89601 0.26694,0.61869 0.72591,1.0576 1.37666,1.3162 h 5.3e-4 c 0.68289,0.27112 1.33561,0.26484 1.95802,-0.0191 0.62145,-0.28139 1.0509,-0.7206 1.28828,-1.31827 0.25752,-0.64836 0.25061,-1.28426 -0.0207,-1.90789 -0.2766,-0.62573 -0.7401,-1.06796 -1.39113,-1.32654 -0.32951,-0.13088 -0.65423,-0.19619 -0.97412,-0.19585 z m 62.50938,1.47846 c 0.52781,0.004 1.04208,0.13707 1.54305,0.39895 0.84656,0.44019 1.41554,1.12173 1.70688,2.04431 0.15647,0.49552 0.20121,0.98985 0.13435,1.48363 -0.0729,0.47462 -0.27397,0.98243 -0.60306,1.52291 l -0.86815,-0.47542 c 0.52837,-0.73888 0.67474,-1.48194 0.43873,-2.22933 -0.2118,-0.67073 -0.62116,-1.16029 -1.22732,-1.46864 -0.59796,-0.31095 -1.23897,-0.35876 -1.92339,-0.14263 -0.70636,0.22304 -1.20809,0.66019 -1.50535,1.31104 -0.27477,0.60761 -0.32501,1.18796 -0.15036,1.74097 0.14867,0.47088 0.44093,0.8435 0.87693,1.11828 0.43873,0.27391 0.88818,0.3627 1.34824,0.26562 l -0.49919,-1.5813 0.89969,-0.28422 0.82733,2.62 -0.20979,0.0661 c -0.47636,0.15042 -0.91546,0.22739 -1.31776,0.23099 -0.37404,-0.002 -0.75025,-0.0862 -1.1281,-0.25321 -0.84836,-0.3794 -1.41574,-1.0238 -1.70273,-1.9327 -0.28009,-0.887 -0.19957,-1.74758 0.24133,-2.58227 0.44365,-0.83556 1.11572,-1.39559 2.01641,-1.68 0.3737,-0.11801 0.74113,-0.17585 1.10226,-0.17312 z m -61.38746,9.9596 -0.0357,1.2268 -2.77553,1.81953 -0.005,0.18087 2.72077,0.0791 -0.0294,1.00252 -6.6461,-0.19275 0.0341,-1.17512 c 0.0255,-0.87812 0.20902,-1.50756 0.55036,-1.88826 0.37981,-0.4198 0.87116,-0.62108 1.47381,-0.60358 0.47064,0.0137 0.87116,0.16071 1.20197,0.44028 0.33068,0.27948 0.53716,0.64127 0.6191,1.08573 z m 66.11948,1.30483 0.048,3.32021 -0.94309,0.0134 -0.0331,-2.31666 -1.59784,0.0233 0.0325,2.23449 -0.94308,0.0139 -0.0326,-2.23501 -3.16466,0.0455 -0.0145,-1.00304 z M 72.76243,83.1852 c -0.63907,0.009 -0.97136,0.46186 -0.99734,1.35702 l -0.0103,0.35709 2.10941,0.0615 0.009,-0.31884 c 0.0275,-0.94988 -0.32147,-1.43516 -1.04749,-1.45624 -0.0213,-6.1e-4 -0.0424,-8.3e-4 -0.0631,-5.2e-4 z m 4.73462,4.21525 0.5307,3.63078 -6.57942,0.96119 -0.53073,-3.63027 0.93326,-0.13643 0.38553,2.63757 1.58078,-0.231 -0.37415,-2.56108 0.93329,-0.13643 0.37412,2.56109 2.19885,-0.32143 -0.38553,-2.63757 z m 59.49248,0.24184 6.57532,0.98754 -0.17468,1.1622 c -0.13046,0.86875 -0.38809,1.4721 -0.77255,1.80919 -0.42736,0.37129 -0.93914,0.51173 -1.53533,0.4222 -0.46564,-0.0699 -0.84608,-0.26311 -1.14101,-0.58033 -0.29496,-0.31718 -0.45617,-0.70161 -0.48419,-1.1529 l -3.10782,1.61489 0.1824,-1.21388 2.97347,-1.47381 0.0269,-0.1788 -2.69184,-0.40411 z m 3.40702,1.52601 -0.0475,0.31522 c -0.14113,0.93973 0.14724,1.46361 0.86555,1.57149 0.67284,0.10103 1.07816,-0.30539 1.21545,-1.21957 l 0.0532,-0.35347 z m -4.61418,1.66398 c -0.0197,0.0962 -0.0383,0.19213 -0.0589,0.28835 0.0206,-0.0961 0.0393,-0.19224 0.0589,-0.28835 z m -0.28165,1.2485 c -0.0247,0.099 -0.0517,0.19729 -0.0775,0.29611 0.0257,-0.0987 0.0528,-0.19722 0.0775,-0.29611 z m -0.28059,1.03663 c -0.0292,0.10144 -0.058,0.20273 -0.0884,0.30386 0.0303,-0.10108 0.0592,-0.20247 0.0884,-0.30386 z m -60.77148,0.25942 c 0.31612,0.002 0.61169,0.0866 0.88678,0.2527 0.46325,0.27982 0.80049,0.74919 1.01129,1.40818 l 0.1416,0.44286 2.57194,-0.82269 0.3054,0.95602 -6.33296,2.02572 -0.34623,-1.08314 c -0.16968,-0.53049 -0.26059,-0.94281 -0.27337,-1.23714 -0.0136,-0.29705 0.0485,-0.58234 0.18709,-0.85576 0.23913,-0.47739 0.62955,-0.80246 1.17099,-0.97565 0.23548,-0.0753 0.46117,-0.11255 0.67747,-0.1111 z m 63.73048,0.0258 c 0.41378,0.005 0.83822,0.0904 1.2733,0.25735 0.87382,0.33523 1.50112,0.94344 1.88257,1.8247 0.3825,0.87856 0.40187,1.76556 0.0584,2.66082 -0.33933,0.88454 -0.94631,1.52161 -1.82158,1.91151 -0.8763,0.39258 -1.7581,0.41897 -2.64533,0.0785 -0.89257,-0.34243 -1.52767,-0.95232 -1.90479,-1.82883 -0.37877,-0.88022 -0.39407,-1.77293 -0.0465,-2.67891 0.30747,-0.80145 0.86077,-1.41512 1.66037,-1.8402 0.49683,-0.26257 1.01158,-0.39083 1.54358,-0.38499 z m -58.42434,0.33693 c 0.0701,0.22481 0.14401,0.44827 0.21963,0.67128 -0.0758,-0.22289 -0.14928,-0.4466 -0.21963,-0.67128 z m -5.34181,0.61134 c -0.11274,0.002 -0.23251,0.0231 -0.35914,0.0636 -0.65352,0.20906 -0.83524,0.76613 -0.54571,1.67122 l 0.10078,0.31625 1.99367,-0.63768 -0.1142,-0.35709 c -0.22815,-0.71317 -0.58674,-1.06517 -1.0754,-1.05626 z m 60.41131,0.0388 c -0.0178,0.0527 -0.0372,0.10456 -0.0553,0.1571 0.0181,-0.0525 0.0375,-0.10444 0.0553,-0.1571 z m 3.31039,0.0233 c -0.34783,-0.002 -0.68599,0.0746 -1.01492,0.22944 -0.61812,0.28867 -1.04243,0.73335 -1.2728,1.33377 -0.24988,0.65134 -0.23564,1.28699 0.0429,1.90738 0.28392,0.62245 0.75313,1.0591 1.40716,1.31 0.66206,0.254 1.30196,0.24572 1.91926,-0.0248 0.61896,-0.26684 1.05235,-0.72437 1.30122,-1.37304 0.24783,-0.64598 0.23214,-1.27778 -0.0476,-1.89549 -0.27424,-0.61565 -0.73813,-1.04927 -1.39216,-1.30018 -0.32165,-0.12341 -0.63619,-0.18553 -0.9431,-0.18707 z m -58.10343,0.16846 c 0.0911,0.26336 0.18579,0.52547 0.28475,0.786 -0.099,-0.2606 -0.19334,-0.52264 -0.28475,-0.786 z m 54.43493,0.79944 c -0.0336,0.0883 -0.0673,0.17628 -0.10182,0.26406 0.0344,-0.0877 0.0682,-0.17584 0.10182,-0.26406 z m -53.91195,0.58704 c 0.0258,0.0633 0.0518,0.12653 0.078,0.18965 -0.0262,-0.0631 -0.0522,-0.12634 -0.078,-0.18965 z m 0.2713,0.64286 c 0.0255,0.0584 0.0506,0.11695 0.0765,0.17518 -0.0258,-0.0582 -0.051,-0.11677 -0.0765,-0.17518 z m 52.82983,0.69815 c -0.0381,0.0825 -0.0789,0.16384 -0.11782,0.24598 0.039,-0.0822 0.0797,-0.16341 0.11782,-0.24598 z m -52.49241,0.0506 c 0.13896,0.29548 0.28427,0.58788 0.43307,0.8785 -0.14877,-0.29066 -0.29416,-0.58297 -0.43307,-0.8785 z m 52.15911,0.64337 c -0.0535,0.10783 -0.10943,0.21433 -0.16433,0.32143 0.0549,-0.10701 0.11078,-0.21369 0.16433,-0.32143 z m -54.80079,0.0496 c 0.30502,0.003 0.61537,0.0502 0.9307,0.14056 0.92115,0.26395 1.6224,0.81728 2.10373,1.65985 0.42582,0.74535 0.55018,1.5619 0.37312,2.44998 -0.1977,0.97925 -0.75931,1.73303 -1.68416,2.26136 -0.81266,0.46427 -1.68079,0.56535 -2.60448,0.30282 -0.92225,-0.26002 -1.62086,-0.80656 -2.0965,-1.63918 -0.46998,-0.82262 -0.5788,-1.69612 -0.3266,-2.62051 0.25082,-0.92687 0.78877,-1.62564 1.61385,-2.09703 0.54475,-0.31122 1.10805,-0.46409 1.69034,-0.45785 z m 3.16775,0.36432 c 0.14825,0.28464 0.29986,0.56737 0.45734,0.84698 -0.15751,-0.27962 -0.30914,-0.5623 -0.45734,-0.84698 z m 51.28628,0.25993 c -0.0699,0.13178 -0.1424,0.26214 -0.21444,0.39274 0.0721,-0.13057 0.14441,-0.26099 0.21444,-0.39274 z m -54.41786,0.36949 c -0.42214,0.003 -0.83277,0.11874 -1.23198,0.34675 -0.61566,0.35176 -1.01446,0.85207 -1.19578,1.5012 -0.18526,0.64807 -0.10539,1.27414 0.23926,1.8774 0.34322,0.60077 0.84241,0.98816 1.4976,1.16272 0.65018,0.17739 1.27949,0.0922 1.88772,-0.25528 0.63817,-0.36458 1.04029,-0.87828 1.20666,-1.54203 0.16782,-0.66122 0.0922,-1.27146 -0.22686,-1.82986 -0.34607,-0.60575 -0.84719,-0.99704 -1.50378,-1.17408 -0.22746,-0.0599 -0.45173,-0.0886 -0.67284,-0.0868 z m 3.59254,0.22479 c 0,0 5.3e-4,0 5.3e-4,0 0.42749,0.34154 0.81111,0.7659 1.28416,1.03818 3.33867,2.4175 7.03868,4.09939 10.71509,5.91644 11.41839,4.44323 25.00363,3.38313 35.32344,-3.34554 0.54832,-0.36096 1.08336,-0.74106 1.60919,-1.13378 -3.82222,5.4017 -9.50886,9.48159 -15.91064,11.22618 -5.93558,1.68003 -12.40073,1.3312 -18.1524,-0.86815 -3.93739,-1.50913 -7.53808,-3.88798 -10.46395,-6.92361 -1.71463,-1.7713 -3.19572,-3.76375 -4.40542,-5.90972 z m 50.47134,0.0501 c -0.0908,0.16055 -0.18363,0.31981 -0.2775,0.47852 0.094,-0.15867 0.18664,-0.31801 0.2775,-0.47852 z m -0.36328,0.62373 c -0.10747,0.17921 -0.21727,0.35706 -0.32866,0.53382 0.11149,-0.17672 0.22108,-0.35467 0.32866,-0.53382 z m 0.89607,0.12403 5.7645,4.14703 -6.94997,0.97358 3.75068,2.69855 -0.5855,0.81442 -5.72627,-4.11913 6.93912,-0.98134 -3.77856,-2.7187 z m -1.27381,0.48679 c -0.12298,0.19374 -0.24808,0.38601 -0.37571,0.57671 0.12766,-0.19065 0.25265,-0.38305 0.37571,-0.57671 z m -0.3845,0.58963 c -0.13517,0.20176 -0.27262,0.4017 -0.41288,0.59996 0.1402,-0.19818 0.27771,-0.39832 0.41288,-0.59996 z m -47.99705,1.95853 1.93167,2.24069 -5.03537,4.34186 -0.65526,-0.76016 4.3212,-3.72588 -1.27693,-1.48053 z m 2.82617,3.22771 2.77813,2.39727 -4.34393,5.03381 -2.77813,-2.39728 0.61651,-0.71365 2.01797,1.7415 1.04387,-1.20975 -1.95959,-1.69085 0.616,-0.71417 1.95956,1.69085 1.45158,-1.68206 -2.01795,-1.7415 z m 41.62692,0.1509 3.8897,4.17442 1.11826,-1.04232 0.64338,0.6904 -2.96777,2.76522 -0.64339,-0.68989 1.11569,-1.03922 -3.89019,-4.17442 z m -2.57143,2.26549 3.72949,5.5051 -3.03805,2.05774 -0.52864,-0.78084 2.20657,-1.49497 -0.89606,-1.32292 -2.14252,1.45159 -0.52917,-0.78084 2.14305,-1.45159 -1.24645,-1.83968 -2.20658,1.495 -0.52916,-0.78032 z m -32.83469,1.62884 -1.07434,7.64501 -0.94929,-0.55189 0.7276,-4.90772 -3.92896,3.04529 -0.94877,-0.55243 z m 28.66131,1.15032 2.6846,6.57428 -6.40686,-2.8634 1.74667,4.27778 -0.92863,0.37931 -2.667,-6.53034 6.40217,2.85149 -1.75958,-4.30982 z m -25.83045,0.90744 3.45612,1.23197 -2.23242,6.26316 -3.45612,-1.23195 0.31676,-0.88831 2.51097,0.89503 0.53639,-1.50534 -2.43808,-0.86868 0.31676,-0.88832 2.43811,0.86868 0.74567,-2.09288 -2.51044,-0.89506 z m 18.84587,1.67949 1.02577,6.56963 -1.37872,0.21547 c -0.6609,0.10319 -1.19298,0.11928 -1.59628,0.0486 -0.43125,-0.0634 -0.83807,-0.22235 -1.22061,-0.47646 -0.77448,-0.51252 -1.2401,-1.27193 -1.39731,-2.27894 -0.15767,-1.0098 0.0676,-1.88206 0.67643,-2.61635 0.30586,-0.3674 0.64381,-0.64265 1.01338,-0.82529 0.34404,-0.17865 0.84908,-0.31967 1.51567,-0.42373 z m -11.53781,0.44026 c 0.30551,-0.002 0.6664,0.0298 1.08315,0.0941 l 1.36218,0.20982 -1.01285,6.57116 -1.37872,-0.21238 c -0.66114,-0.10189 -1.17343,-0.2476 -1.53636,-0.4372 -0.39174,-0.19108 -0.73146,-0.46569 -1.01904,-0.8237 -0.5828,-0.72308 -0.79655,-1.58792 -0.64132,-2.59519 0.15571,-1.01012 0.63492,-1.77289 1.43764,-2.28825 0.4028,-0.25744 0.8079,-0.41746 1.21544,-0.47955 0.14325,-0.0248 0.3066,-0.0377 0.48988,-0.0388 z m 10.69186,0.64649 -0.44648,0.0698 c -0.44535,0.0695 -0.80844,0.17399 -1.08882,0.31366 -0.2795,0.14534 -0.52144,0.34459 -0.72606,0.59738 -0.41836,0.52152 -0.57182,1.13943 -0.46043,1.85414 0.1125,0.72052 0.44466,1.26733 0.99684,1.64024 0.49644,0.33218 1.1675,0.43219 2.01279,0.30022 l 0.44649,-0.0697 z m -10.51615,0.30697 c -0.16143,-10e-4 -0.30951,0.009 -0.44493,0.0299 -0.31041,0.0538 -0.60176,0.16989 -0.87333,0.34882 -0.55669,0.37026 -0.88974,0.91329 -0.99994,1.62833 -0.11107,0.7207 0.0399,1.34236 0.4532,1.86499 0.37246,0.46699 0.98121,0.76526 1.82676,0.89557 l 0.44699,0.0692 0.72554,-4.70721 -0.44698,-0.0692 c -0.25059,-0.0386 -0.47975,-0.0588 -0.68731,-0.0604 z" />
  </g>
</svg>
