<svg width="168" height="168" viewBox="0 0 168 168" fill="none" xmlns="http://www.w3.org/2000/svg">
<g clip-path="url(#clip0_4:3)">
<path d="M10.5 0.000677761L0 10.5007L23.1 42.8512C24.0725 44.2135 25.3565 45.3236 26.8451 46.0889C28.3337 46.8542 29.9837 47.2525 31.6575 47.2507H32.3925C33.773 47.2496 35.1402 47.5208 36.4159 48.0487C37.6915 48.5766 38.8505 49.3508 39.8265 50.3272L67.914 78.4147L40.4355 106.282C35.7356 104.898 30.778 104.629 25.956 105.495C21.1339 106.362 16.5801 108.34 12.6556 111.272C8.73122 114.205 5.54422 118.012 3.34744 122.391C1.15066 126.771 0.00453811 131.601 0 136.501C0.00629436 141.015 0.982839 145.475 2.86347 149.579C4.7441 153.683 7.48488 157.335 10.9001 160.287C14.3153 163.24 18.3252 165.423 22.6581 166.69C26.991 167.958 31.5456 168.279 36.0134 167.632C40.4812 166.985 44.7577 165.385 48.5533 162.941C52.3489 160.497 55.5748 157.266 58.0126 153.467C60.4503 149.667 62.0428 145.388 62.6823 140.919C63.3218 136.45 62.9933 131.896 61.719 127.565L89.586 100.087L99.75 110.251L96.5475 119.848C95.9321 121.697 95.8439 123.682 96.2927 125.579C96.7415 127.476 97.7095 129.211 99.0885 130.589L134.327 165.827C136.296 167.796 138.966 168.901 141.75 168.901C144.534 168.901 147.204 167.796 149.173 165.827L165.827 149.174C167.795 147.205 168.901 144.535 168.901 141.751C168.901 138.966 167.795 136.296 165.827 134.327L130.589 99.0892C129.21 97.7102 127.476 96.7421 125.579 96.2933C123.681 95.8446 121.697 95.9328 119.847 96.5482L110.25 99.7507L100.17 89.6707L128.31 61.9192C132.978 63.1653 137.87 63.3227 142.609 62.3792C147.347 61.4357 151.806 59.4166 155.641 56.4776C159.476 53.5385 162.585 49.758 164.727 45.4275C166.87 41.097 167.99 36.3323 168 31.5007C168 28.6762 167.632 25.9357 166.929 23.3422L144.459 45.8227L126 42.0007L122.178 23.5522L144.659 1.07168C139.311 -0.366179 133.679 -0.368863 128.329 1.0639C122.98 2.49666 118.104 5.31422 114.19 9.23259C110.277 13.1509 107.467 18.0316 106.041 23.3827C104.616 28.7337 104.626 34.3659 106.071 39.7117L78.351 67.8307L50.3265 39.8272C48.3572 37.8585 47.2506 35.1882 47.25 32.4037V31.6582C47.2502 29.9862 46.851 28.3383 46.0858 26.8516C45.3206 25.365 44.2114 24.0826 42.8505 23.1112L10.5 0.000677761ZM111.783 111.784C112.271 111.295 112.85 110.907 113.488 110.642C114.126 110.378 114.809 110.241 115.5 110.241C116.191 110.241 116.874 110.378 117.512 110.642C118.15 110.907 118.729 111.295 119.217 111.784L150.717 143.284C151.205 143.772 151.592 144.351 151.856 144.989C152.121 145.627 152.257 146.31 152.257 147.001C152.257 147.691 152.121 148.375 151.856 149.012C151.592 149.65 151.205 150.23 150.717 150.718C150.229 151.206 149.649 151.593 149.012 151.857C148.374 152.121 147.69 152.257 147 152.257C146.31 152.257 145.626 152.121 144.988 151.857C144.351 151.593 143.771 151.206 143.283 150.718L111.783 119.218C111.294 118.73 110.906 118.151 110.642 117.513C110.377 116.875 110.241 116.191 110.241 115.501C110.241 114.81 110.377 114.126 110.642 113.489C110.906 112.851 111.294 112.271 111.783 111.784ZM31.5 115.501L36.4455 118.042L42 118.315L45.0135 122.987L49.686 126.001L49.959 131.555L52.5 136.501L49.959 141.446L49.686 147.001L45.0135 150.014L42 154.687L36.4455 154.96L31.5 157.501L26.5545 154.96L21 154.687L17.9865 150.014L13.314 147.001L13.041 141.446L10.5 136.501L13.041 131.555L13.314 126.001L17.9865 122.987L21 118.315L26.5545 118.042L31.5 115.501Z" fill="#20FFBC"/>
</g>
<defs>
<clipPath id="clip0_4:3">
<rect width="168" height="168" fill="white"/>
</clipPath>
</defs>
</svg>
